<?xml version="1.0" standalone="no"?>
<!DOCTYPE svg PUBLIC "-//W3C//DTD SVG 20010904//EN"
 "http://www.w3.org/TR/2001/REC-SVG-20010904/DTD/svg10.dtd">
<svg version="1.0" xmlns="http://www.w3.org/2000/svg"
 width="512.000000pt" height="512.000000pt" viewBox="0 0 512.000000 512.000000"
 preserveAspectRatio="xMidYMid meet">
<metadata>
Created by potrace 1.14, written by Peter Selinger 2001-2017
</metadata>
<g transform="translate(0.000000,512.000000) scale(0.100000,-0.100000)"
fill="#000000" stroke="none">
<path d="M4089 4552 c-17 -37 -34 -76 -39 -87 -9 -21 -20 -47 -70 -165 -35
-82 -46 -107 -84 -193 -14 -32 -26 -59 -26 -61 0 -2 -8 -21 -17 -42 -9 -22
-17 -41 -18 -44 -3 -9 -24 -59 -44 -103 -10 -23 -60 -139 -110 -257 -51 -118
-100 -233 -111 -255 -10 -22 -64 -148 -120 -280 -56 -132 -110 -258 -120 -280
-9 -22 -34 -80 -55 -130 -21 -49 -48 -112 -60 -140 -12 -27 -48 -111 -79 -185
-32 -74 -66 -155 -77 -179 -11 -24 -29 -67 -40 -95 -12 -28 -34 -79 -50 -114
-16 -35 -29 -65 -29 -67 0 -3 -11 -29 -25 -59 -21 -45 -28 -53 -46 -49 -13 4
-19 12 -16 22 6 21 204 516 223 558 7 17 14 35 14 40 1 4 9 26 20 48 11 22 19
44 20 48 0 5 7 23 15 40 7 18 35 86 60 152 26 66 50 129 55 140 5 11 23 56 41
100 17 44 35 86 41 93 6 6 8 12 5 12 -2 0 51 138 118 308 68 169 122 308 120
310 -3 4 -90 -29 -180 -68 -11 -5 -63 -25 -115 -45 -52 -20 -108 -42 -125 -49
-16 -7 -57 -23 -90 -36 -33 -12 -73 -28 -90 -35 -16 -8 -136 -55 -265 -105
-129 -51 -248 -98 -265 -105 -16 -7 -73 -29 -125 -50 -52 -20 -104 -40 -115
-45 -103 -46 -462 -180 -472 -175 -34 13 -3 39 97 81 58 24 114 48 125 53 17
9 226 97 312 133 16 6 31 11 36 10 4 -1 7 2 7 8 0 5 6 10 14 10 7 0 40 12 72
26 33 15 149 64 259 111 110 46 214 91 230 98 17 7 118 50 225 96 107 45 218
92 247 105 28 13 58 24 65 24 8 0 18 4 24 9 5 5 51 27 103 49 l94 40 -114 36
c-139 43 -245 69 -364 91 -49 10 -98 19 -109 21 -10 2 -37 5 -60 8 -22 3 -57
7 -76 10 -104 16 -170 19 -430 20 -244 1 -461 -8 -480 -19 -3 -2 -30 -7 -60
-10 -90 -11 -152 -22 -235 -40 -33 -8 -71 -16 -85 -18 -88 -16 -310 -86 -447
-142 -141 -57 -210 -130 -231 -245 -9 -47 8 -160 26 -183 5 -7 27 -43 47 -82
21 -38 56 -99 77 -134 21 -34 38 -65 38 -68 0 -3 25 -48 55 -101 31 -54 61
-106 67 -117 6 -11 35 -62 65 -114 29 -51 53 -95 53 -97 0 -2 18 -33 40 -69
22 -36 40 -67 40 -69 0 -4 226 -405 240 -426 6 -8 13 -21 17 -29 4 -8 31 -58
61 -110 30 -53 68 -121 84 -151 17 -30 47 -84 68 -120 20 -36 50 -87 65 -115
15 -27 63 -112 106 -188 44 -75 79 -139 79 -142 0 -3 18 -34 40 -70 22 -36 40
-68 40 -71 0 -8 42 -47 75 -70 64 -44 162 -50 239 -13 66 31 85 56 216 294 27
50 40 73 109 193 20 35 48 85 62 110 15 26 47 83 71 127 25 44 58 103 73 130
16 28 65 115 110 195 46 80 93 163 105 185 59 104 160 285 310 550 89 160 174
310 188 335 14 25 50 88 80 140 30 52 55 101 55 108 0 6 4 12 8 12 7 0 23 74
23 105 1 79 -33 162 -88 214 l-36 35 122 44 c68 24 137 49 153 57 17 7 57 22
90 33 90 31 337 121 360 132 11 5 30 12 43 15 17 5 22 12 17 23 -4 10 -8 25
-11 36 -7 38 22 46 -304 -84 -113 -45 -239 -94 -280 -110 -41 -16 -114 -44
-162 -63 -49 -19 -88 -33 -88 -30 0 3 13 33 29 67 16 33 40 86 54 116 76 168
142 312 167 365 28 60 54 117 105 228 14 33 24 65 22 72 -3 7 -20 17 -37 23
l-31 11 -30 -67z"/>
<path d="M2357 635 c-1 -2 -29 -5 -62 -9 -326 -32 -356 -141 -53 -192 58 -10
370 -13 433 -4 68 10 110 18 110 20 0 1 7 3 16 5 68 13 121 48 117 78 -5 37
-106 76 -238 93 -50 6 -317 13 -323 9z"/>
</g>
</svg>
